<?xml version="1.0" encoding="utf-8"?>
<!-- Generator: Adobe Illustrator 26.0.0, SVG Export Plug-In . SVG Version: 6.00 Build 0)  -->
<svg version="1.1" id="圖層_1" xmlns="http://www.w3.org/2000/svg" xmlns:xlink="http://www.w3.org/1999/xlink" x="0px" y="0px"
	 viewBox="0 0 600 124" style="enable-background:new 0 0 600 124;" xml:space="preserve">
<g>
	<g>
		<path d="M142.78,62.83h-17.05c-0.24,0-0.44,0.2-0.44,0.44v0.33c0,0.24,0.2,0.44,0.44,0.44h0.39c0.58,0,1.1,0.19,1.58,0.57
			c0.44,0.35,0.66,1.08,0.66,2.16v21.48c0,0.82-0.21,1.47-0.65,1.97c-0.42,0.48-0.94,0.72-1.59,0.72h-0.39
			c-0.24,0-0.44,0.2-0.44,0.44v0.31c0,0.24,0.2,0.44,0.44,0.44h9.16c0.24,0,0.44-0.2,0.44-0.44v-0.31c0-0.24-0.2-0.44-0.44-0.44
			h-0.4c-0.64,0-1.17-0.24-1.63-0.72c-0.46-0.49-0.69-1.14-0.69-1.96v-9.92h5.92c1.08,0,1.82,0.21,2.19,0.63
			c0.4,0.45,0.62,1.03,0.69,1.75c0.02,0.23,0.21,0.4,0.44,0.4h0.31c0.24,0,0.44-0.2,0.44-0.44v-6.44c0-0.24-0.2-0.44-0.44-0.44
			h-0.31c-0.22,0-0.4,0.16-0.43,0.37c-0.12,0.78-0.37,1.4-0.74,1.83c-0.35,0.39-1.07,0.59-2.14,0.59h-5.92V64.59h6.39
			c1.24,0,2.12,0.3,2.6,0.89c0.52,0.64,0.81,1.34,0.88,2.14c0.02,0.23,0.21,0.4,0.44,0.4h0.31c0.24,0,0.44-0.2,0.44-0.44v-4.32
			C143.22,63.03,143.02,62.83,142.78,62.83z"/>
		<path d="M175.48,66.29c-1.46-1.38-3.12-2.45-4.95-3.18c-1.83-0.73-3.77-1.1-5.75-1.1c-2.03,0-4,0.39-5.86,1.15
			c-1.86,0.76-3.54,1.86-5,3.25c-1.46,1.4-2.61,3.06-3.42,4.93c-0.81,1.88-1.22,3.91-1.22,6.04c0,2.78,0.69,5.38,2.05,7.74
			c1.36,2.36,3.25,4.26,5.62,5.64c2.37,1.39,5.02,2.09,7.86,2.09c2.83,0,5.45-0.71,7.78-2.1c2.33-1.39,4.2-3.28,5.54-5.62
			c1.35-2.34,2.03-4.92,2.03-7.64c0-2.26-0.42-4.37-1.25-6.27C178.1,69.33,176.94,67.67,175.48,66.29z M164.82,91.12
			c-1.42,0-2.81-0.25-4.12-0.73c-1.3-0.48-2.51-1.28-3.6-2.38c-1.09-1.1-1.95-2.54-2.58-4.29c-0.63-1.76-0.95-3.86-0.95-6.24
			c0-2.71,0.38-5.01,1.14-6.83c0.75-1.82,1.72-3.24,2.88-4.23c1.16-1,2.37-1.69,3.59-2.06c1.24-0.38,2.45-0.57,3.59-0.57
			c1.48,0,3.08,0.36,4.77,1.06c1.65,0.69,3.14,2.07,4.42,4.12c1.29,2.05,1.94,4.96,1.94,8.64c0,2.56-0.34,4.74-1.02,6.5
			c-0.67,1.75-1.56,3.15-2.63,4.16c-1.07,1.01-2.27,1.75-3.56,2.2C167.39,90.89,166.09,91.12,164.82,91.12z"/>
		<path d="M210.67,90.93c-0.6-0.06-1.22-0.32-1.86-0.79c-0.65-0.48-1.55-1.67-2.67-3.55l-2.56-4.34c-1.22-2.08-2.56-3.61-4-4.56
			c0.97-0.28,1.82-0.7,2.53-1.24c0.95-0.72,1.66-1.6,2.12-2.61c0.45-1,0.69-2.05,0.69-3.14c0-0.85-0.14-1.72-0.42-2.6
			c-0.28-0.88-0.75-1.73-1.39-2.53c-0.65-0.8-1.57-1.47-2.73-1.99c-1.15-0.51-2.56-0.77-4.2-0.77h-9.83c-0.24,0-0.44,0.2-0.44,0.44
			v0.4c0,0.24,0.2,0.44,0.44,0.44h0.39c0.55,0,1.05,0.19,1.53,0.59c0.45,0.37,0.67,1.06,0.67,2.06v21.48c0,0.68-0.12,1.22-0.37,1.61
			c-0.24,0.38-0.53,0.64-0.89,0.79c-0.39,0.16-0.84,0.26-1.35,0.28c-0.23,0.01-0.42,0.2-0.42,0.44v0.31c0,0.24,0.2,0.44,0.44,0.44
			h9.04c0.24,0,0.44-0.2,0.44-0.44v-0.31c0-0.24-0.19-0.43-0.42-0.44c-1.82-0.06-2.66-0.91-2.66-2.69v-9.95
			c0.46,0.01,0.88,0.05,1.24,0.1c0.45,0.07,0.96,0.25,1.54,0.54c0.57,0.29,1.2,0.77,1.88,1.45c0.68,0.68,1.36,1.59,2.03,2.7
			l3.39,5.61c0.02,0.03,0.04,0.06,0.07,0.08c0,0,0.08,0.1,0.39,0.59c0.25,0.4,0.44,0.69,0.57,0.88c0.23,0.31,0.43,0.58,0.62,0.84
			c0.2,0.28,0.41,0.56,0.63,0.84c0.08,0.11,0.21,0.17,0.35,0.17h5.17c0.24,0,0.44-0.2,0.44-0.44v-0.31
			C211.07,91.14,210.9,90.95,210.67,90.93z M192.75,64.55c0.37-0.06,0.82-0.09,1.33-0.09c1.68,0,3.02,0.33,3.99,0.99
			c0.97,0.66,1.67,1.49,2.07,2.45c0.41,0.99,0.62,2.01,0.62,3.04c0,1.23-0.23,2.28-0.68,3.12c-0.44,0.82-1.17,1.46-2.16,1.9
			c-1.02,0.46-2.37,0.69-3.99,0.69h-1.18V64.55z"/>
		<path d="M234.81,80.25c-0.37-0.58-0.82-1.13-1.35-1.61c-0.58-0.54-1.21-0.98-1.87-1.32c-0.66-0.34-1.41-0.6-2.22-0.79
			c-0.27-0.06-0.54-0.12-0.82-0.17c1.2-0.49,2.22-1.14,3.03-1.92c1.19-1.15,1.79-2.66,1.79-4.48c0-0.99-0.21-1.92-0.62-2.77
			c-0.41-0.84-1-1.6-1.75-2.26c-0.75-0.66-1.68-1.18-2.76-1.55c-1.07-0.37-2.25-0.55-3.52-0.55h-9.27c-0.24,0-0.44,0.2-0.44,0.44
			v0.33c0,0.24,0.2,0.44,0.44,0.44h0.35c0.7,0,1.23,0.22,1.62,0.69c0.41,0.48,0.62,1.17,0.62,2.08v21.44c0,0.92-0.22,1.6-0.65,2.03
			c-0.44,0.44-0.95,0.65-1.55,0.65h-0.39c-0.24,0-0.44,0.2-0.44,0.44v0.31c0,0.24,0.2,0.44,0.44,0.44h10.62
			c2.48,0,4.47-0.4,5.9-1.19c1.02-0.59,1.94-1.45,2.74-2.56c0.82-1.14,1.23-2.51,1.23-4.07c0-0.72-0.1-1.43-0.29-2.11
			C235.46,81.48,235.18,80.84,234.81,80.25z M227.75,66.33c0.48,0.55,0.84,1.18,1.09,1.89c0.25,0.71,0.38,1.48,0.38,2.27
			c0,1.02-0.19,1.89-0.56,2.59c-0.37,0.71-0.77,1.24-1.16,1.56c-0.42,0.34-0.82,0.61-1.2,0.8c-0.57,0.28-1.6,0.42-3.04,0.42h-1.41
			V64.91c0.78-0.21,1.48-0.32,2.09-0.32c0.76,0,1.48,0.15,2.13,0.46C226.71,65.36,227.27,65.79,227.75,66.33z M222.03,88.99
			c-0.12-0.41-0.18-0.95-0.18-1.58v-9.8h2.47c1.13,0,2.18,0.16,3.14,0.48c0.94,0.31,1.73,0.75,2.35,1.29
			c0.61,0.54,1.1,1.22,1.45,2.03c0.35,0.82,0.53,1.74,0.53,2.76c0,1.4-0.36,2.68-1.07,3.8c-1.03,1.61-2.73,2.4-5.2,2.4
			c-1.18,0-2.05-0.15-2.58-0.45C222.43,89.64,222.13,89.33,222.03,88.99z"/>
		<path d="M250.33,62.83h-9.01c-0.24,0-0.44,0.2-0.44,0.44v0.33c0,0.24,0.2,0.44,0.44,0.44c0.73,0,1.35,0.19,1.87,0.57
			c0.48,0.35,0.72,1.05,0.72,2.08v21.56c0,0.97-0.25,1.67-0.73,2.06c-0.52,0.42-1.13,0.63-1.86,0.63c-0.24,0-0.44,0.2-0.44,0.44
			v0.31c0,0.24,0.2,0.44,0.44,0.44h9.01c0.24,0,0.44-0.2,0.44-0.44v-0.31c0-0.24-0.2-0.44-0.44-0.44c-0.68,0-1.27-0.21-1.83-0.65
			c-0.52-0.41-0.78-1.08-0.78-2.04V66.68c0-0.96,0.24-1.64,0.72-2.03c0.52-0.41,1.13-0.62,1.88-0.62c0.24,0,0.44-0.2,0.44-0.44
			v-0.33C250.76,63.03,250.57,62.83,250.33,62.83z"/>
		<path d="M282.25,70.52c-0.65-1.13-1.44-2.17-2.37-3.09c-0.52-0.55-1.18-1.1-1.95-1.64c-0.77-0.53-1.68-1.03-2.73-1.48
			c-1.04-0.45-2.24-0.81-3.56-1.08c-1.31-0.27-2.77-0.4-4.32-0.4H256.4c-0.24,0-0.44,0.2-0.44,0.44v0.33c0,0.24,0.2,0.44,0.44,0.44
			h0.39c0.42,0,0.78,0.09,1.12,0.27c0.32,0.17,0.58,0.46,0.77,0.87c0.21,0.43,0.31,0.97,0.31,1.62v21.44c0,0.66-0.19,1.28-0.58,1.88
			c-0.35,0.54-0.88,0.8-1.62,0.8h-0.39c-0.24,0-0.44,0.2-0.44,0.44v0.31c0,0.24,0.2,0.44,0.44,0.44h12.75
			c2.05,0,3.71-0.17,4.92-0.52c1.21-0.34,2.3-0.8,3.25-1.36c1.1-0.67,2.07-1.44,2.89-2.27c0.83-0.83,1.55-1.78,2.14-2.8
			c0.59-1.02,1.06-2.15,1.38-3.36c0.32-1.2,0.48-2.48,0.48-3.81c0-1.33-0.16-2.64-0.49-3.89C283.39,72.86,282.89,71.65,282.25,70.52
			z M263.25,89.31c-0.3-0.44-0.45-1.18-0.45-2.19V64.99c1.69-0.26,3.13-0.4,4.27-0.4c2.34,0,4.36,0.4,6.01,1.19
			c1.64,0.79,3.01,1.89,4.05,3.28c0.94,1.24,1.65,2.67,2.11,4.26c0.46,1.6,0.7,3.25,0.7,4.88c0,2.07-0.29,3.85-0.86,5.3
			c-0.57,1.44-1.33,2.68-2.26,3.68c-1.26,1.33-2.58,2.21-3.91,2.59c-1.37,0.39-3.08,0.59-5.09,0.59c-1.4,0-2.47-0.07-3.19-0.22
			C263.99,90.01,263.54,89.74,263.25,89.31z"/>
		<path d="M316.24,70.52c-0.65-1.13-1.44-2.17-2.37-3.09c-0.52-0.55-1.18-1.1-1.95-1.64c-0.77-0.53-1.68-1.03-2.73-1.48
			c-1.04-0.45-2.24-0.81-3.56-1.08c-1.31-0.27-2.77-0.4-4.32-0.4h-10.93c-0.24,0-0.44,0.2-0.44,0.44v0.33c0,0.24,0.2,0.44,0.44,0.44
			h0.39c0.42,0,0.78,0.09,1.12,0.27c0.32,0.17,0.57,0.46,0.77,0.87c0.21,0.43,0.31,0.97,0.31,1.62v21.44c0,0.66-0.19,1.28-0.58,1.88
			c-0.35,0.54-0.88,0.8-1.62,0.8h-0.39c-0.24,0-0.44,0.2-0.44,0.44v0.31c0,0.24,0.2,0.44,0.44,0.44h12.75
			c2.05,0,3.71-0.17,4.92-0.52c1.21-0.34,2.3-0.8,3.25-1.36c1.1-0.67,2.07-1.44,2.89-2.27c0.83-0.83,1.55-1.78,2.14-2.8
			c0.59-1.02,1.06-2.15,1.38-3.36c0.32-1.2,0.48-2.48,0.48-3.81c0-1.33-0.16-2.64-0.49-3.89C317.38,72.86,316.89,71.65,316.24,70.52
			z M297.24,89.31c-0.3-0.44-0.45-1.18-0.45-2.19V64.99c1.69-0.26,3.13-0.4,4.27-0.4c2.34,0,4.36,0.4,6.01,1.19
			c1.64,0.79,3.01,1.89,4.05,3.28c0.94,1.24,1.65,2.67,2.11,4.26c0.46,1.6,0.7,3.25,0.7,4.88c0,2.07-0.29,3.85-0.86,5.3
			c-0.57,1.44-1.33,2.68-2.26,3.68c-1.26,1.33-2.58,2.21-3.91,2.59c-1.37,0.39-3.08,0.59-5.09,0.59c-1.4,0-2.47-0.07-3.19-0.22
			C297.98,90.01,297.53,89.74,297.24,89.31z"/>
		<path d="M342.21,86.78h-0.27c-0.19,0-0.35,0.12-0.41,0.3c-0.24,0.7-0.54,1.31-0.9,1.8c-0.33,0.46-0.8,0.83-1.38,1.09
			c-0.59,0.27-1.38,0.4-2.33,0.4h-4.22c-0.87,0-1.42-0.2-1.63-0.59c-0.26-0.49-0.38-1.08-0.38-1.76v-9.65h5.02
			c0.47,0,0.94,0.04,1.37,0.11c0.02,0,0.05,0.01,0.07,0.01c0.18,0,0.41,0.05,0.67,0.16c0.24,0.1,0.51,0.32,0.78,0.65
			c0.27,0.33,0.46,0.83,0.56,1.48c0.03,0.21,0.22,0.37,0.43,0.37h0.29c0.24,0,0.44-0.2,0.44-0.44v-6.44c0-0.24-0.2-0.44-0.44-0.44
			h-0.29c-0.23,0-0.41,0.17-0.44,0.4c-0.1,1.03-0.47,1.66-1.12,1.93c-0.75,0.31-1.62,0.47-2.59,0.47h-4.77V64.59h5.48
			c1.86,0,4.34,0.33,4.34,3.15c0,0.24,0.2,0.44,0.44,0.44h0.27c0.24,0,0.44-0.2,0.44-0.44v-4.47c0-0.24-0.2-0.44-0.44-0.44H324.3
			c-0.24,0-0.44,0.2-0.44,0.44v0.33c0,0.24,0.2,0.44,0.44,0.44h0.39c0.82,0,1.37,0.25,1.68,0.75c0.35,0.57,0.52,1.26,0.52,2.05v21.4
			c0,0.97-0.24,1.66-0.71,2.06c-0.5,0.42-0.99,0.63-1.49,0.63h-0.39c-0.24,0-0.44,0.2-0.44,0.44v0.31c0,0.24,0.2,0.44,0.44,0.44
			h16.93c0.21,0,0.38-0.14,0.43-0.34l0.98-4.45c0.03-0.13,0-0.27-0.09-0.37C342.47,86.84,342.35,86.78,342.21,86.78z"/>
		<path d="M377.04,62.83h-7.13c-0.24,0-0.44,0.2-0.44,0.44v0.33c0,0.24,0.19,0.43,0.42,0.44c0.89,0.03,1.54,0.22,1.94,0.57
			c0.39,0.34,0.63,0.8,0.72,1.38c0.11,0.66,0.16,1.67,0.16,3.01v17.19l-20.71-23.21c-0.08-0.09-0.2-0.15-0.33-0.15h-5.34
			c-0.24,0-0.44,0.2-0.44,0.44v0.33c0,0.21,0.15,0.4,0.36,0.43c0.7,0.12,1.29,0.3,1.75,0.53c0.31,0.15,0.88,0.57,1.87,1.7l0.84,0.94
			v18.36c0,1.58-0.09,2.77-0.27,3.54c-0.16,0.69-0.42,1.16-0.76,1.39c-0.37,0.25-0.92,0.4-1.64,0.44c-0.23,0.01-0.42,0.2-0.42,0.44
			v0.31c0,0.24,0.2,0.44,0.44,0.44h7.12c0.24,0,0.44-0.2,0.44-0.44v-0.31c0-0.23-0.18-0.43-0.42-0.44c-1.03-0.04-1.76-0.35-2.15-0.9
			c-0.12-0.17-0.3-0.55-0.43-1.34c-0.11-0.68-0.17-1.75-0.17-3.17V69.2l21.04,23.48c0.08,0.09,0.2,0.15,0.33,0.15h0.19
			c0.24,0,0.44-0.2,0.44-0.44V67.47c0-0.96,0.1-1.7,0.31-2.19c0.19-0.44,0.43-0.73,0.75-0.87c0.38-0.17,0.91-0.3,1.58-0.38
			c0.22-0.03,0.38-0.21,0.38-0.44v-0.33C377.47,63.03,377.28,62.83,377.04,62.83z"/>
		<path d="M416,65.32c-0.83-0.77-1.88-1.39-3.12-1.83c-1.23-0.44-2.66-0.66-4.26-0.66h-9.31c-0.24,0-0.44,0.2-0.44,0.44v0.33
			c0,0.24,0.2,0.44,0.44,0.44h0.34c0.12,0.03,0.34,0.08,0.64,0.16c0.29,0.08,0.56,0.2,0.79,0.35c0.21,0.14,0.4,0.4,0.57,0.76
			c0.18,0.38,0.27,0.86,0.27,1.45v21.48c0,0.95-0.24,1.63-0.7,2.03c-0.5,0.42-1.13,0.64-1.92,0.66c-0.24,0.01-0.43,0.2-0.43,0.44
			v0.31c0,0.24,0.2,0.44,0.44,0.44h9.04c0.24,0,0.44-0.2,0.44-0.44v-0.31c0-0.24-0.19-0.43-0.42-0.44
			c-1.82-0.06-2.66-0.91-2.66-2.69v-9.31c1.25,0.12,2.12,0.18,2.61,0.18c1.7,0,3.23-0.22,4.54-0.66c1.32-0.44,2.42-1.05,3.24-1.8
			c0.83-0.76,1.45-1.64,1.84-2.61c0.39-0.97,0.58-1.98,0.58-3.03c0-1.07-0.21-2.1-0.62-3.07C417.46,66.97,416.83,66.09,416,65.32z
			 M405.7,64.64c0.77-0.12,1.54-0.18,2.28-0.18c2.14,0,3.75,0.63,4.78,1.88c1.05,1.27,1.59,2.92,1.59,4.92c0,2.4-0.59,4.05-1.74,4.9
			c-1.2,0.88-2.68,1.33-4.42,1.33c-0.82,0-1.65-0.07-2.49-0.2V64.64z"/>
		<path d="M446.37,90.93c-0.52-0.05-0.95-0.14-1.27-0.27c-0.2-0.08-0.52-0.3-0.95-0.92c-0.37-0.53-0.78-1.42-1.22-2.63l-8.5-24.33
			c-0.06-0.18-0.23-0.29-0.41-0.29h-2.08c-0.19,0-0.36,0.12-0.42,0.3l-8.02,24.45c-0.4,1.23-0.87,2.16-1.4,2.75
			c-0.5,0.56-1.15,0.87-2,0.95c-0.23,0.02-0.4,0.21-0.4,0.44v0.31c0,0.24,0.2,0.44,0.44,0.44h6.67c0.24,0,0.44-0.2,0.44-0.44v-0.31
			c0-0.24-0.2-0.44-0.44-0.44c-0.64,0-1.13-0.11-1.45-0.32c-0.27-0.18-0.4-0.59-0.4-1.23c0-0.53,0.15-1.26,0.44-2.16l2.16-6.68h9.2
			l2.41,7.19c0.01,0.09,0.05,0.19,0.1,0.31c0.22,0.67,0.33,1.21,0.33,1.59c0,0.88-0.35,1.01-0.48,1.05
			c-0.47,0.16-1.16,0.25-2.05,0.25c-0.24,0-0.44,0.2-0.44,0.44v0.31c0,0.24,0.2,0.44,0.44,0.44h9.27c0.24,0,0.44-0.2,0.44-0.44
			v-0.31C446.77,91.14,446.59,90.95,446.37,90.93z M428.15,78.64l3.79-11.77l4.04,11.77H428.15z"/>
		<path d="M475.64,90.93c-0.6-0.06-1.22-0.32-1.86-0.79c-0.65-0.48-1.55-1.67-2.67-3.55l-2.56-4.34c-1.22-2.08-2.56-3.61-4-4.56
			c0.97-0.28,1.82-0.7,2.53-1.24c0.95-0.72,1.66-1.6,2.12-2.61c0.45-1,0.69-2.05,0.69-3.14c0-0.85-0.14-1.72-0.42-2.6
			c-0.28-0.88-0.75-1.73-1.39-2.53c-0.65-0.8-1.57-1.47-2.73-1.99c-1.15-0.51-2.56-0.77-4.2-0.77h-9.83c-0.24,0-0.44,0.2-0.44,0.44
			v0.4c0,0.24,0.2,0.44,0.44,0.44h0.39c0.55,0,1.05,0.19,1.53,0.59c0.45,0.37,0.67,1.06,0.67,2.06v21.48c0,0.68-0.12,1.22-0.37,1.61
			c-0.24,0.38-0.53,0.64-0.89,0.79c-0.39,0.16-0.84,0.26-1.35,0.28c-0.23,0.01-0.42,0.2-0.42,0.44v0.31c0,0.24,0.2,0.44,0.44,0.44
			h9.04c0.24,0,0.44-0.2,0.44-0.44v-0.31c0-0.24-0.19-0.43-0.42-0.44c-1.82-0.06-2.66-0.91-2.66-2.69v-9.95
			c0.46,0.01,0.88,0.05,1.24,0.1c0.45,0.07,0.96,0.25,1.54,0.54c0.57,0.29,1.2,0.77,1.88,1.45c0.68,0.68,1.36,1.59,2.03,2.7
			l3.39,5.61c0.02,0.03,0.04,0.06,0.07,0.08c0,0,0.08,0.1,0.39,0.59c0.25,0.4,0.44,0.69,0.57,0.88c0.23,0.31,0.43,0.58,0.62,0.84
			c0.2,0.28,0.41,0.56,0.63,0.84c0.08,0.11,0.21,0.17,0.35,0.17h5.17c0.24,0,0.44-0.2,0.44-0.44v-0.31
			C476.03,91.14,475.86,90.95,475.64,90.93z M457.71,64.55c0.37-0.06,0.82-0.09,1.33-0.09c1.68,0,3.02,0.33,3.99,0.99
			c0.97,0.66,1.67,1.49,2.07,2.45c0.41,0.99,0.62,2.01,0.62,3.04c0,1.23-0.23,2.28-0.68,3.12c-0.44,0.82-1.17,1.46-2.16,1.9
			c-1.02,0.46-2.37,0.69-3.99,0.69h-1.18V64.55z"/>
		<path d="M505.75,90.93c-0.52-0.05-0.95-0.14-1.27-0.27c-0.2-0.08-0.52-0.3-0.95-0.92c-0.37-0.53-0.78-1.42-1.22-2.63l-8.5-24.33
			c-0.06-0.18-0.23-0.29-0.41-0.29h-2.08c-0.19,0-0.36,0.12-0.42,0.3l-8.02,24.45c-0.4,1.23-0.87,2.16-1.4,2.75
			c-0.5,0.56-1.15,0.87-2,0.95c-0.23,0.02-0.4,0.21-0.4,0.44v0.31c0,0.24,0.2,0.44,0.44,0.44h6.67c0.24,0,0.44-0.2,0.44-0.44v-0.31
			c0-0.24-0.2-0.44-0.44-0.44c-0.64,0-1.13-0.11-1.45-0.32c-0.27-0.18-0.4-0.59-0.4-1.23c0-0.53,0.15-1.26,0.44-2.16l2.16-6.68h9.2
			l2.41,7.19c0.01,0.09,0.05,0.19,0.1,0.31c0.22,0.67,0.33,1.21,0.33,1.59c0,0.88-0.35,1.01-0.48,1.05
			c-0.47,0.16-1.16,0.25-2.05,0.25c-0.24,0-0.44,0.2-0.44,0.44v0.31c0,0.24,0.2,0.44,0.44,0.44h9.27c0.24,0,0.44-0.2,0.44-0.44
			v-0.31C506.15,91.14,505.98,90.95,505.75,90.93z M487.53,78.64l3.79-11.77l4.04,11.77H487.53z"/>
		<path d="M536.67,70.52c-0.65-1.13-1.44-2.17-2.37-3.09c-0.52-0.55-1.18-1.1-1.95-1.64c-0.77-0.53-1.68-1.03-2.73-1.48
			c-1.04-0.45-2.24-0.81-3.56-1.08c-1.31-0.27-2.77-0.4-4.32-0.4h-10.93c-0.24,0-0.44,0.2-0.44,0.44v0.33c0,0.24,0.2,0.44,0.44,0.44
			h0.39c0.42,0,0.78,0.09,1.12,0.27c0.32,0.17,0.57,0.46,0.77,0.87c0.21,0.43,0.31,0.97,0.31,1.62v21.44c0,0.66-0.19,1.28-0.58,1.88
			c-0.35,0.54-0.88,0.8-1.62,0.8h-0.39c-0.24,0-0.44,0.2-0.44,0.44v0.31c0,0.24,0.2,0.44,0.44,0.44h12.75
			c2.05,0,3.71-0.17,4.92-0.52c1.21-0.34,2.3-0.8,3.25-1.36c1.1-0.67,2.07-1.44,2.89-2.27c0.83-0.83,1.55-1.78,2.14-2.8
			c0.59-1.02,1.06-2.15,1.38-3.36c0.32-1.2,0.48-2.48,0.48-3.81c0-1.33-0.16-2.64-0.49-3.89C537.81,72.86,537.32,71.65,536.67,70.52
			z M517.67,89.31c-0.3-0.44-0.45-1.18-0.45-2.19V64.99c1.69-0.26,3.13-0.4,4.27-0.4c2.34,0,4.36,0.4,6.01,1.19
			c1.64,0.79,3.01,1.89,4.05,3.28c0.94,1.24,1.65,2.67,2.11,4.26c0.46,1.6,0.7,3.25,0.7,4.88c0,2.07-0.29,3.85-0.86,5.3
			c-0.57,1.44-1.33,2.68-2.26,3.68c-1.26,1.33-2.58,2.21-3.91,2.59c-1.37,0.39-3.08,0.59-5.09,0.59c-1.4,0-2.47-0.07-3.19-0.22
			C518.41,90.01,517.96,89.74,517.67,89.31z"/>
		<path d="M553.81,62.83h-9.01c-0.24,0-0.44,0.2-0.44,0.44v0.33c0,0.24,0.2,0.44,0.44,0.44c0.73,0,1.35,0.19,1.87,0.57
			c0.48,0.35,0.72,1.05,0.72,2.08v21.56c0,0.97-0.25,1.67-0.73,2.06c-0.52,0.42-1.13,0.63-1.86,0.63c-0.24,0-0.44,0.2-0.44,0.44
			v0.31c0,0.24,0.2,0.44,0.44,0.44h9.01c0.24,0,0.44-0.2,0.44-0.44v-0.31c0-0.24-0.2-0.44-0.44-0.44c-0.68,0-1.28-0.21-1.83-0.65
			c-0.52-0.41-0.78-1.08-0.78-2.04V66.68c0-0.96,0.24-1.64,0.72-2.03c0.52-0.41,1.13-0.62,1.88-0.62c0.24,0,0.44-0.2,0.44-0.44
			v-0.33C554.25,63.03,554.06,62.83,553.81,62.83z"/>
		<path d="M569.45,76.48c-1.26-0.7-2.23-1.26-2.95-1.71c-0.7-0.44-1.32-0.91-1.83-1.42c-0.49-0.48-0.87-1.04-1.12-1.67
			c-0.25-0.63-0.38-1.37-0.38-2.2c0-1.07,0.22-2.02,0.64-2.84c0.42-0.81,1.03-1.46,1.81-1.93c0.77-0.47,1.68-0.71,2.68-0.71
			c1.56,0,2.78,0.47,3.73,1.42c0.95,0.96,1.51,2.09,1.68,3.36c0.03,0.22,0.21,0.38,0.43,0.38h0.31c0.24,0,0.44-0.2,0.44-0.44v-6.07
			c0-0.24-0.2-0.44-0.44-0.44h-0.31c-0.2,0-0.37,0.13-0.42,0.33c-0.14,0.54-0.35,0.54-0.44,0.54c-0.34,0-0.53-0.06-0.63-0.11
			c-0.02-0.01-0.04-0.02-0.06-0.03c-1.35-0.44-2.69-0.66-3.97-0.66c-1.71,0-3.27,0.39-4.63,1.17c-1.36,0.77-2.43,1.82-3.17,3.1
			c-0.74,1.28-1.12,2.65-1.12,4.06c0,1.22,0.21,2.31,0.64,3.25c0.42,0.94,0.99,1.77,1.7,2.46c0.7,0.68,1.39,1.23,2.07,1.66
			c0.67,0.42,1.7,1.01,3.05,1.75c1.93,1.03,3.39,2.04,4.32,3.01c0.9,0.93,1.33,2.11,1.33,3.6c0,0.71-0.16,1.43-0.47,2.14
			c-0.3,0.68-0.85,1.28-1.63,1.77c-0.79,0.49-1.88,0.74-3.23,0.74c-1.8,0-3.35-0.51-4.61-1.5c-1.25-1-2.11-2.5-2.55-4.48
			c-0.04-0.2-0.22-0.34-0.43-0.34h-0.33c-0.24,0-0.44,0.2-0.44,0.44v7.11c0,0.24,0.2,0.44,0.44,0.44h0.33
			c0.21,0,0.38-0.14,0.43-0.34c0.18-0.8,0.27-1.08,0.31-1.17c0-0.01,0.03-0.02,0.13-0.02c0.02,0,0.16,0.01,0.63,0.16
			c0.93,0.45,1.87,0.81,2.79,1.07c0.93,0.26,2.02,0.39,3.22,0.39c1.93,0,3.58-0.38,4.9-1.14c1.33-0.76,2.33-1.74,2.99-2.94
			c0.66-1.18,0.99-2.43,0.99-3.71c0-2.09-0.63-3.77-1.87-4.99C573.22,78.81,571.55,77.63,569.45,76.48z"/>
		<path d="M599.75,86.94c-0.08-0.1-0.21-0.16-0.34-0.16h-0.27c-0.19,0-0.35,0.12-0.41,0.3c-0.24,0.7-0.54,1.31-0.9,1.8
			c-0.33,0.46-0.8,0.83-1.38,1.09c-0.59,0.27-1.38,0.4-2.33,0.4h-4.22c-0.87,0-1.42-0.2-1.63-0.59c-0.26-0.49-0.38-1.08-0.38-1.76
			v-9.65h5.02c0.47,0,0.94,0.04,1.38,0.11c0.02,0,0.05,0.01,0.07,0.01c0.18,0,0.41,0.05,0.67,0.16c0.24,0.1,0.51,0.32,0.78,0.65
			c0.27,0.33,0.46,0.83,0.56,1.48c0.03,0.21,0.22,0.37,0.43,0.37h0.29c0.24,0,0.44-0.2,0.44-0.44v-6.44c0-0.24-0.2-0.44-0.44-0.44
			h-0.29c-0.23,0-0.41,0.17-0.44,0.4c-0.1,1.03-0.47,1.66-1.12,1.93c-0.75,0.31-1.62,0.47-2.59,0.47h-4.77V64.59h5.48
			c1.86,0,4.34,0.33,4.34,3.15c0,0.24,0.2,0.44,0.44,0.44h0.27c0.24,0,0.44-0.2,0.44-0.44v-4.47c0-0.24-0.2-0.44-0.44-0.44H581.5
			c-0.24,0-0.44,0.2-0.44,0.44v0.33c0,0.24,0.2,0.44,0.44,0.44h0.39c0.82,0,1.37,0.25,1.68,0.75c0.35,0.57,0.52,1.26,0.52,2.05v21.4
			c0,0.97-0.24,1.66-0.71,2.06c-0.5,0.42-0.99,0.63-1.49,0.63h-0.39c-0.24,0-0.44,0.2-0.44,0.44v0.31c0,0.24,0.2,0.44,0.44,0.44
			h16.93c0.21,0,0.38-0.14,0.43-0.34l0.98-4.45C599.87,87.18,599.83,87.04,599.75,86.94z"/>
	</g>
</g>
<g>
	<path d="M34.88,124L0,98.17V54.63l3.08-1.91v18.34l2.12,0.53l0.12-20.17l2.91-2.13V72l2.56,0.62v-25.3c0,0,3.41-2.81,4.13-3.64
		v29.65l2.96,0.67V40.72c0,0,4.59-4.94,5.65-6.93v41.28l3.65,0.68v-47.9c0,0,7.65-11.78,7.7-27.84V124z"/>
	<path d="M39.4,124l34.87-25.83V54.63l-3.08-1.91v18.34l-2.12,0.53l-0.12-20.17l-2.91-2.13V72l-2.56,0.62v-25.3
		c0,0-3.41-2.81-4.13-3.64v29.65l-2.96,0.67V40.72c0,0-4.59-4.94-5.65-6.93v41.28l-3.65,0.68v-47.9c0,0-7.65-11.78-7.7-27.84V124z"
		/>
</g>
</svg>
